<?xml version="1.0" encoding="utf-8"?>
<!-- Generator: Adobe Illustrator 25.4.1, SVG Export Plug-In . SVG Version: 6.00 Build 0)  -->
<svg version="1.1" id="Calque_1" xmlns="http://www.w3.org/2000/svg" xmlns:xlink="http://www.w3.org/1999/xlink" x="0px" y="0px"
	 viewBox="0 0 37.6 37.6" style="enable-background:new 0 0 37.6 37.6;" xml:space="preserve">
<g id="Calque_2_00000151527634446526193930000009604411442482412418_">
	<g id="Calque_1-2">
		<path d="M32.2,5.4c-2.8-2.8-5.9-1-7.8,0.9L6.5,24.3C4.6,26.2,2.6,29,5.6,32s5.9,1,7.8-0.9l17.9-17.9C33.2,11.3,35,8.3,32.2,5.4z"
			/>
		<path d="M15.1,4.7l3.8,3.8l3.9-3.9c0.3-0.3,0.5-0.5,0.8-0.7c-0.2-2.4-2.3-4.1-4.7-3.9c-3.1,0-4.3,1.9-4.7,3.9
			C14.5,4.1,14.8,4.4,15.1,4.7z"/>
		<path d="M22.7,32.9L18.9,29l-3.8,3.8c-0.3,0.3-0.6,0.5-0.9,0.8c0.4,2.1,1.7,4,4.7,4s4.2-1.9,4.7-4C23.2,33.4,23,33.2,22.7,32.9z"
			/>
		<path d="M13.4,13.9H6.1c-2.7,0-6.1,0.9-6.1,4.9c0,3,1.9,4.2,4,4.7C4.2,23.1,13.4,13.9,13.4,13.9z"/>
		<path d="M33.7,14.1c-0.2,0.3-9.5,9.5-9.5,9.5h7.2c2.7,0,6.1-0.6,6.1-4.9C37.8,16.4,36.1,14.3,33.7,14.1z"/>
		<path d="M15.9,11.5l1.3-1.3l-3.8-3.8c-1.9-1.9-4.8-3.9-7.8-0.9c-1.8,1.5-2,4.2-0.5,6.1C5.4,11.5,15.9,11.5,15.9,11.5z"/>
		<path d="M21.9,26l-1.3,1.3l3.9,3.9c1.9,1.9,4.9,3.7,7.8,0.9c2.1-2.1,1.6-4.3,0.5-6.1C32.3,26,21.9,26,21.9,26z"/>
	</g>
</g>
</svg>
